<?xml version="1.0" standalone="no"?>
<!DOCTYPE svg PUBLIC "-//W3C//DTD SVG 20010904//EN"
 "http://www.w3.org/TR/2001/REC-SVG-20010904/DTD/svg10.dtd">
<svg version="1.0" xmlns="http://www.w3.org/2000/svg"
 width="417.000000pt" height="105.000000pt" viewBox="0 0 417.000000 105.000000"
 preserveAspectRatio="xMidYMid meet">

<g transform="translate(0.000000,105.000000) scale(0.100000,-0.100000)"
fill="#000000" stroke="none">
<path d="M250 1003 c0 -5 -34 -212 -75 -461 -41 -250 -75 -458 -75 -463 0 -5
31 -9 69 -9 79 0 72 -10 91 128 l12 82 69 0 c47 0 71 -4 74 -12 3 -7 11 -53
18 -103 l12 -90 77 -3 c69 -3 76 -1 72 15 -2 10 -35 214 -74 453 -39 239 -74
443 -76 453 -5 15 -18 17 -100 17 -52 0 -94 -3 -94 -7z m126 -400 c13 -103 24
-189 24 -190 0 -2 -25 -3 -56 -3 -55 0 -56 0 -50 28 3 15 15 102 27 195 12 92
24 165 26 163 3 -3 16 -89 29 -193z"/>
<path d="M660 540 l0 -470 65 0 65 0 0 470 0 470 -65 0 -65 0 0 -470z"/>
<path d="M2160 940 l0 -70 75 0 75 0 0 -400 0 -400 75 0 75 0 0 400 0 400 75
0 75 0 0 70 0 70 -225 0 -225 0 0 -70z"/>
<path d="M3160 540 l0 -470 65 0 c64 0 65 0 65 27 l0 26 23 -20 c67 -62 156
-58 197 9 19 31 20 51 20 291 0 281 -4 305 -56 346 -38 30 -100 24 -149 -13
l-35 -27 0 150 0 151 -65 0 -65 0 0 -470z m220 100 c19 -19 20 -33 20 -226 0
-122 -4 -213 -10 -225 -13 -23 -47 -25 -78 -3 -22 15 -22 19 -22 229 0 210 0
214 22 229 30 21 44 20 68 -4z"/>
<path d="M1865 761 c-67 -31 -115 -102 -115 -171 l0 -30 63 0 63 0 10 42 c7
33 15 45 36 52 42 15 58 -6 58 -74 l0 -58 -52 -32 c-134 -82 -186 -149 -195
-250 -15 -167 101 -235 221 -130 32 29 36 30 36 12 0 -45 9 -52 74 -52 l61 0
-3 262 c-1 145 -7 287 -13 316 -22 112 -134 164 -244 113z m100 -547 c-20 -31
-62 -42 -82 -21 -20 20 -19 96 1 135 8 16 32 43 53 60 l38 30 3 -90 c2 -69 -1
-96 -13 -114z"/>
<path d="M3745 761 c-48 -22 -79 -54 -100 -103 -19 -47 -22 -424 -3 -479 38
-114 159 -162 268 -107 71 37 99 93 100 201 l0 47 -64 0 -64 0 -7 -66 c-6 -56
-10 -67 -31 -76 -35 -16 -70 2 -78 42 -3 18 -6 66 -6 106 l0 74 125 0 125 0 0
108 c0 123 -10 169 -47 213 -50 59 -140 76 -218 40z m103 -109 c15 -10 32 -66
32 -109 l0 -33 -61 0 -62 0 6 62 c7 76 40 108 85 80z"/>
<path d="M1614 751 c-17 -10 -40 -32 -52 -47 l-21 -29 -1 43 0 42 -65 0 -65 0
0 -345 0 -345 64 0 65 0 3 248 c3 264 6 279 55 301 13 6 39 11 58 11 l35 0 0
70 c0 66 -1 70 -22 70 -13 0 -37 -9 -54 -19z"/>
<path d="M922 434 l3 -326 28 -24 c46 -40 114 -27 180 34 l27 26 0 -37 0 -37
65 0 65 0 0 345 0 345 -65 0 -65 0 0 -264 0 -265 -27 -21 c-15 -12 -38 -20
-52 -18 l-26 3 -3 283 -2 282 -66 0 -65 0 3 -326z"/>
<path d="M2672 434 l3 -326 28 -24 c46 -40 114 -27 180 34 l27 26 0 -37 0 -37
65 0 65 0 0 345 0 345 -65 0 -65 0 0 -264 0 -265 -27 -21 c-15 -12 -38 -20
-52 -18 l-26 3 -3 283 -2 282 -66 0 -65 0 3 -326z"/>
</g>
</svg>
