<svg id="svg" version="1.1" xmlns="http://www.w3.org/2000/svg" xmlns:xlink="http://www.w3.org/1999/xlink" width="400" height="100.71942446043165" viewBox="0, 0, 400,100.71942446043165"><g id="svgg"><path id="path0" d="M23.977 4.556 C 23.975 4.952,20.738 24.850,16.783 48.775 C 12.828 72.699,9.592 92.663,9.592 93.139 C 9.592 93.615,12.567 94.005,16.203 94.005 C 23.787 94.005,23.093 94.971,24.985 81.775 L 26.120 73.861 32.754 73.861 C 40.400 73.861,39.845 73.161,41.501 84.892 L 42.720 93.525 50.057 93.804 C 56.688 94.056,57.358 93.917,57.013 92.365 C 56.803 91.420,53.574 71.871,49.838 48.921 C 46.103 25.971,42.828 6.439,42.561 5.516 C 42.058 3.770,23.986 2.838,23.977 4.556 M63.309 48.921 L 63.309 94.005 69.544 94.005 L 75.779 94.005 75.779 48.921 L 75.779 3.837 69.544 3.837 L 63.309 3.837 63.309 48.921 M207.194 10.552 L 207.194 17.266 214.388 17.266 L 221.583 17.266 221.583 55.635 L 221.583 94.005 228.777 94.005 L 235.971 94.005 235.971 55.635 L 235.971 17.266 243.165 17.266 L 250.360 17.266 250.360 10.552 L 250.360 3.837 228.777 3.837 L 207.194 3.837 207.194 10.552 M303.118 48.921 L 303.118 94.005 309.353 94.005 C 315.472 94.005,315.588 93.957,315.588 91.440 L 315.588 88.874 317.746 90.840 C 324.257 96.770,332.773 96.371,336.687 89.952 C 339.153 85.906,339.649 39.837,337.287 34.183 C 334.098 26.552,326.000 24.769,318.951 30.146 L 315.588 32.712 315.588 18.274 L 315.588 3.837 309.353 3.837 L 303.118 3.837 303.118 48.921 M36.061 42.861 C 37.325 52.789,38.362 61.019,38.364 61.151 C 38.367 61.283,35.961 61.391,33.017 61.391 C 27.694 61.391,27.668 61.377,28.177 58.753 C 28.458 57.302,29.634 48.875,30.789 40.026 C 31.944 31.177,33.086 24.133,33.326 24.373 C 33.567 24.614,34.797 32.933,36.061 42.861 M178.897 27.712 C 172.426 30.699,167.866 37.471,167.866 44.094 L 167.866 47.002 173.916 47.002 L 179.967 47.002 180.871 42.936 C 182.839 34.079,189.928 35.787,189.928 45.119 L 189.928 50.675 184.892 53.747 C 172.112 61.545,167.083 67.988,166.203 77.691 C 164.750 93.713,175.900 100.250,187.423 90.133 C 190.536 87.400,190.887 87.288,190.887 89.031 C 190.887 93.375,191.781 94.005,197.944 94.006 L 203.837 94.006 203.568 68.826 C 203.421 54.976,202.846 41.358,202.292 38.564 C 200.159 27.809,189.449 22.842,178.897 27.712 M359.233 27.712 C 349.549 32.181,348.201 36.216,348.201 60.737 C 348.201 85.366,349.655 90.224,358.178 94.096 C 372.214 100.470,384.545 91.372,384.629 74.580 L 384.652 70.024 378.529 70.024 L 372.406 70.024 371.732 76.317 C 370.965 83.477,368.650 85.733,364.165 83.690 C 361.459 82.457,360.671 79.243,360.671 69.424 L 360.671 62.350 372.662 62.350 L 384.652 62.350 384.647 52.038 C 384.636 30.204,374.615 20.613,359.233 27.712 M154.838 28.668 C 153.213 29.659,150.960 31.708,149.833 33.221 L 147.783 35.971 147.752 31.894 L 147.722 27.818 141.487 27.818 L 135.252 27.818 135.252 60.911 L 135.252 94.005 141.426 94.005 L 147.600 94.005 147.901 70.264 C 148.259 41.967,148.869 40.288,158.798 40.288 L 162.110 40.288 162.110 33.573 C 162.110 25.950,160.774 25.049,154.838 28.668 M88.451 59.077 L 88.729 90.336 91.420 92.650 C 95.869 96.475,102.386 95.244,108.633 89.399 L 111.271 86.931 111.271 90.468 L 111.271 94.005 117.506 94.005 L 123.741 94.005 123.741 60.911 L 123.741 27.818 117.506 27.818 L 111.271 27.818 111.271 53.168 L 111.271 78.518 108.686 80.552 C 107.199 81.721,105.059 82.464,103.650 82.300 L 101.199 82.014 100.944 54.916 L 100.690 27.818 94.432 27.818 L 88.174 27.818 88.451 59.077 M256.317 59.077 L 256.595 90.336 259.286 92.650 C 263.735 96.475,270.252 95.244,276.499 89.399 L 279.137 86.931 279.137 90.468 L 279.137 94.005 285.372 94.005 L 291.607 94.005 291.607 60.911 L 291.607 27.818 285.372 27.818 L 279.137 27.818 279.137 53.168 L 279.137 78.518 276.551 80.552 C 275.064 81.721,272.925 82.464,271.515 82.300 L 269.065 82.014 268.810 54.916 L 268.555 27.818 262.297 27.818 L 256.040 27.818 256.317 59.077 M324.221 39.329 C 326.015 41.123,326.139 42.526,326.139 60.974 C 326.139 81.725,325.665 84.412,322.002 84.412 C 315.861 84.412,315.588 83.411,315.588 60.911 C 315.588 40.799,315.629 40.367,317.719 38.903 C 320.537 36.930,321.912 37.020,324.221 39.329 M369.082 38.212 C 370.596 39.172,372.182 44.528,372.182 48.675 L 372.182 51.799 366.294 51.799 L 360.405 51.799 360.945 45.844 C 361.609 38.523,364.823 35.508,369.082 38.212 M188.515 80.192 C 184.727 85.972,179.072 83.642,179.218 76.362 C 179.328 70.848,181.184 67.233,185.811 63.516 L 189.448 60.595 189.726 69.257 C 189.936 75.833,189.644 78.468,188.515 80.192 " stroke="none" fill-rule="evenodd"></path></g></svg>